<?xml version="1.0" encoding="utf-8"?>
<!-- Generator: Adobe Illustrator 21.0.0, SVG Export Plug-In . SVG Version: 6.00 Build 0)  -->
<svg version="1.1" id="Layer_1" xmlns="http://www.w3.org/2000/svg" xmlns:xlink="http://www.w3.org/1999/xlink" x="0px" y="0px"
	 viewBox="0 0 132 199" style="enable-background:new 0 0 132 199;" xml:space="preserve">
<style type="text/css">
	.st0{fill:#FFFFFF;}
</style>
<g>
	<g>
		<path class="st0" d="M133,67c-0.9,4.5-1,9.4-2.9,13.4c-4.9,10.5-9.7,21.2-16.2,30.7c-15.3,22.4-30.8,44.7-40.4,70.3
			c-2.1,5.6-4.1,11.2-6.4,17.6c-0.7-1.4-1.1-1.9-1.3-2.6c-9.1-28.9-24.2-54.6-41.6-79.2c-7-9.8-13-20.5-18.4-31.3
			C3,80.3,2.5,73.4,1,67c0-0.7,0-1.3,0-2c0.3-1.1,0.7-2.2,0.8-3.3C3.7,34.2,22.6,10.8,49.1,3.3C51.7,2.5,54.4,1.8,57,1
			c6.7,0,13.3,0,20,0c1,0.4,2,0.8,3.1,1.1c26.2,6.4,43.1,22.4,50.3,48.4c1.2,4.4,1.7,9,2.5,13.5C133,65,133,66,133,67z M50,146.4
			c5.6-6.5,10.8-12.8,16.3-18.8c10.4-11.3,21.3-22.1,31.2-33.7c7.9-9.2,12.6-20,11.3-32.6c-2.4-23.1-18.9-41.2-41.6-46
			c-22.8-4.8-52,7.5-58.6,36.4c-3.3,14.6-1.7,28.4,6.1,40.9C25.9,110.8,38.1,128.5,50,146.4z"/>
		<path class="st0" d="M92.2,66.3c-0.1,14.1-11.5,25.5-25.5,25.2c-14-0.3-24.9-11.4-24.8-25.3c0-14.1,11.4-25.3,25.5-25.2
			C81.2,41.1,92.2,52.4,92.2,66.3z M67,47.8c-10.2,0-18.5,8.3-18.4,18.4c0.1,9.9,8.3,18.1,18.2,18.2c10.1,0.1,18.6-8.2,18.7-18.3
			C85.5,56.1,77.2,47.8,67,47.8z"/>
	</g>
</g>
</svg>
