<?xml version="1.0" encoding="utf-8"?>
<!-- Generator: Adobe Illustrator 21.0.0, SVG Export Plug-In . SVG Version: 6.00 Build 0)  -->
<svg version="1.1" id="Layer_1" xmlns="http://www.w3.org/2000/svg" xmlns:xlink="http://www.w3.org/1999/xlink" x="0px" y="0px"
	 viewBox="0 0 328 610" style="enable-background:new 0 0 328 610;" xml:space="preserve">
<style type="text/css">
	.st0{fill:#FFFFFF;}
</style>
<g>
	<g>
		<path class="st0" d="M236,1c27,0,54,0,81,0c4.3,2.7,10.2,3,12,9c0,33.7,0,67.3,0,101c-3.8,5.7-9.3,7.9-16,7.9c-15.5-0.1-31-0.1-46.5,0
			c-6.3,0.1-12.6,0.5-18.8,1.2c-13.1,1.5-22.7,9.3-25.4,21.3c-1.4,6.2-2.1,12.7-2.2,19.1c-0.3,18.3,0,36.7-0.2,55
			c-0.1,4.4,1.2,5.7,5.6,5.6c28.5-0.2,57-0.1,85.5-0.1c10.1,0,14.3,4,14.3,14.1c0,31.8,0,63.6-0.1,95.5c0,10.3-4.2,14.4-14.4,14.4
			c-28.3,0-56.6,0-85,0c-1.8,0-3.6,0-5.8,0c0,2.5,0,4.5,0,6.4c0,81.1,0,162.3,0,243.4c0,9.3-1.3,11.2-9.7,14.8
			c-0.5,0.2-0.9,0.9-1.3,1.4c-35,0-70,0-105,0c-0.3-0.4-0.5-1-0.9-1.1c-9.1-1.7-10.2-8.1-10.2-15.9c0.1-80.9,0.1-161.9,0.1-242.8
			c0-1.9,0-3.9,0-6.2c-2.5,0-4.2,0-6,0c-23.3,0-46.6-0.2-69.9,0.1c-7,0.1-12.4-1.9-16-8.1c0-36,0-72,0-108c3.2-6.8,9.1-8.1,15.9-8
			c23.2,0.1,46.3,0,69.5,0c6.6,0,6.6,0,6.6-6.4c0-24.3-0.2-48.7,0.1-73c0.1-7.7,0.7-15.6,2.2-23.2c3.3-16.9,8.3-33.4,16.7-48.6
			c10-18.2,23.6-33.4,40.9-44.6c21.1-13.7,44.5-21.4,70-22.4C227.3,2.7,231.6,1.6,236,1z"/>
	</g>
</g>
</svg>
