<?xml version="1.0" encoding="utf-8"?>
<!-- Generator: Adobe Illustrator 21.0.0, SVG Export Plug-In . SVG Version: 6.00 Build 0)  -->
<svg version="1.1" id="Layer_1" xmlns="http://www.w3.org/2000/svg" xmlns:xlink="http://www.w3.org/1999/xlink" x="0px" y="0px"
	 viewBox="0 0 135 135" style="enable-background:new 0 0 135 135;" xml:space="preserve">
<style type="text/css">
	.st0{fill:#FFFFFF;}
</style>
<g>
	<g>
		<path class="st0" d="M100.7,135.3c-22,0-44,0-65.9,0c-1.4-0.2-2.8-0.4-4.1-0.7c-15.3-3.4-25.1-12.7-29.3-27.8c-0.5-2-0.7-4-1.1-6.1
			c0-22,0-44,0-65.9c0.2-1.4,0.4-2.8,0.7-4.1C4.4,15.4,13.6,5.6,28.8,1.4c2-0.5,4-0.7,6.1-1.1c22,0,44,0,65.9,0
			c1.4,0.2,2.8,0.4,4.1,0.7c15.3,3.4,25.1,12.7,29.3,27.8c0.5,2,0.7,4,1.1,6.1c0,22,0,44,0,65.9c-0.2,1.4-0.4,2.8-0.7,4.1
			c-3.4,15.3-12.7,25.1-27.8,29.3C104.8,134.7,102.8,134.9,100.7,135.3z M67.8,123.3c9.8,0,19.5,0,29.3,0c3.1,0,6.1-0.3,9.1-1.4
			c10.7-3.8,17.2-13.1,17.2-24.8c0-19.6,0.1-39.2-0.1-58.8c0-3-0.4-6.1-1.4-8.9c-3.6-10.8-13-17.2-24.7-17.3
			c-19.6,0-39.3-0.1-58.9,0.1c-2.9,0-6,0.4-8.8,1.3c-10.8,3.6-17.2,12.9-17.3,24.5c0,19.7,0,39.5,0,59.2c0,8.9,3.5,16,10.7,21.3
			c4.6,3.4,9.8,4.7,15.5,4.7C48.2,123.3,58,123.3,67.8,123.3z"/>
		<path class="st0" d="M67.8,33c19.1,0,34.8,15.8,34.8,34.8c-0.1,19.2-15.8,34.9-34.9,34.8C48.6,102.5,33,86.9,33,67.8C33,48.7,48.7,33,67.8,33z
			 M90.6,67.8C90.6,55.3,80.4,45,67.8,45C55.3,45,45,55.2,45,67.8c0,12.5,10.2,22.8,22.8,22.8C80.3,90.6,90.5,80.4,90.6,67.8z"/>
		<path class="st0" d="M104,40.4c-4.8,0-8.7-3.9-8.8-8.7c-0.1-4.8,4-8.8,8.8-8.8c4.8,0,8.9,4.1,8.8,8.8C112.7,36.5,108.8,40.4,104,40.4z"/>
	</g>
</g>
</svg>
