<?xml version="1.0" encoding="utf-8"?>
<!-- Generator: Adobe Illustrator 21.0.0, SVG Export Plug-In . SVG Version: 6.00 Build 0)  -->
<svg version="1.1" id="Layer_1" xmlns="http://www.w3.org/2000/svg" xmlns:xlink="http://www.w3.org/1999/xlink" x="0px" y="0px"
	 viewBox="0 0 512 424" style="enable-background:new 0 0 512 424;" xml:space="preserve">
<g>
	<g>
		<path fill="#fff" d="M2,394c0-88.7,0-177.3,0-266c0.5,0.4,1.1,0.7,1.6,1.1C57,169.8,111,209.6,167.1,246.4c22.8,15,46,29.3,70.7,41
			c13.3,6.3,26.2,7.1,39.2,0.4c17.4-9.1,35.1-17.7,51.7-28c62.7-38.9,121.6-83.3,180.1-128.3c1.3-1,2.8-1.6,4.2-2.4
			c0,88.7,0,177.3,0,266c-4,10-9.4,19-19,24.7c-3.2,1.9-6.7,3.5-10,5.3c-150.7,0-301.3,0-452,0c-10.7-4.2-19.8-10.4-25.4-20.8
			C4.9,400.9,3.5,397.4,2,394z"/>
		<path fill="#fff" d="M32,1c150.7,0,301.3,0,452,0c4,2.2,8.2,4.2,12.1,6.7c8.6,5.6,13.1,14.2,16.9,23.3c0,11.3,0,22.7,0,34
			c-1.3,0.7-2.6,1.3-3.7,2.2c-10.9,8.5-21.7,17.1-32.7,25.6c-50.4,38.8-101,77.5-155,111.2c-16.5,10.3-34.1,18.7-51.4,27.5
			c-7.9,4-16.5,3.7-24.7,0c-7.1-3.2-14.4-6.2-21.2-10c-31.9-17.5-61.9-38-91-59.7C89.2,128.9,45.7,95.3,2,62c0-9.7,0-19.3,0-29
			C6.6,17.2,16.6,6.6,32,1z"/>
	</g>
</g>
</svg>
