<?xml version="1.0" encoding="utf-8"?>
<!-- Generator: Adobe Illustrator 21.0.0, SVG Export Plug-In . SVG Version: 6.00 Build 0)  -->
<svg version="1.1" id="Layer_1" xmlns="http://www.w3.org/2000/svg" xmlns:xlink="http://www.w3.org/1999/xlink" x="0px" y="0px"
	 viewBox="0 0 512 512" style="enable-background:new 0 0 512 512;" xml:space="preserve">
<g>
	<g>
		<path fill="#fff" d="M106,1c6.9,1.3,13.1,3.9,17.2,9.8c2.9,4.1,5.6,8.4,8,12.9c8.5,16,16.8,32.2,25.2,48.2c9.3,17.7,18.7,35.2,27.9,52.9
			c6.5,12.5,4.2,26.1-5.7,36c-7.9,7.9-15.6,16-23.7,23.6c-5.4,5.1-6.8,10.6-4.4,17.7c5.8,17.2,14.9,32.7,25.5,47.2
			c7.3,9.9,15.2,19.4,23.5,28.5c9.6,10.6,19.5,20.9,29.8,30.8c20.5,19.7,42.8,37.2,68.6,49.6c6.1,2.9,12.7,5.2,19.4,6.5
			c5.3,1,9.2-2.7,12.9-6.6c9.4-9.9,18.4-20.3,28.9-28.9c12.4-10.1,27.4-9,41.1-0.8c19.5,11.8,39.3,23.3,58.9,35
			c14.7,8.8,29.3,17.7,44,26.5c5.8,3.4,7.4,9.6,10.1,15c0,2.3,0,4.7,0,7c-1.8,8.6-7.8,14.4-13.7,20.3
			c-21.3,21.1-42.4,42.4-63.7,63.6c-7.9,7.9-17.2,13.5-28.2,15.9c-3.1,0.7-6.3,0.9-9.5,1.3c-1.7,0-3.3,0-5,0c-0.8-0.3-1.7-0.9-2.5-1
			c-9.3-1-18.6-1.8-27.9-3c-24.1-3.1-46.3-12-68.1-21.9c-28.3-13-54.7-29.1-80.1-47.2c-26-18.5-49.1-40.4-72.1-62.3
			c-6.8-6.5-13.1-13.6-19.6-20.5c-7-7.5-14.3-14.7-20.6-22.8C88,316.5,73.7,298.7,60.8,280c-21.2-30.7-38.7-63.5-49-99.7
			c-3.7-13-6-26.3-8.8-39.5c-1-4.5-1.4-9.2-2-13.8c0-3.3,0-6.7,0-10c0.3-0.7,1-1.4,0.9-2C1.5,99.8,8.4,88,18.8,77.6
			c19.8-19.6,39.4-39.3,59-59C85.4,11.1,92.3,2.5,104,1C104.7,1,105.3,1,106,1z"/>
	</g>
</g>
</svg>
