<?xml version="1.0" encoding="utf-8"?>
<!-- Generator: Adobe Illustrator 21.0.0, SVG Export Plug-In . SVG Version: 6.00 Build 0)  -->
<svg version="1.1" id="Layer_1" xmlns="http://www.w3.org/2000/svg" xmlns:xlink="http://www.w3.org/1999/xlink" x="0px" y="0px"
	 viewBox="0 0 417.6 298" style="enable-background:new 0 0 417.6 298;" xml:space="preserve">
<style type="text/css">
	.st0{fill:#FFFFFF;}
</style>
<g>
	<g>
		<path class="st0" d="M418.2,125.5c0,15.1,0,30.3,0,45.4c-0.2,1.1-0.5,2.2-0.5,3.3c-0.1,2.8,0,5.7-0.2,8.5c-0.6,9.5-1.3,19.1-2,28.6
			c-0.3,3.8-0.7,7.6-1.2,11.3c-0.8,6.6-1.6,13.3-2.6,19.9c-0.7,4.2-1.3,8.6-2.7,12.6c-3.7,10.8-10,19.8-19,26.9
			c-7.1,5.6-15.1,9.1-24,10c-10.8,1-21.7,1.5-32.6,2.2c-13,0.8-26,1.6-39,2.1c-18.3,0.7-36.6,1.1-54.9,1.7c-2,0.1-3.9,0-5.9,0
			c-5.9,0.2-11.9,0.3-17.8,0.5c-5.5,0-11,0-16.6,0c-0.5-0.1-1-0.3-1.5-0.3c-14.5-0.4-28.9-0.8-43.4-1.3c-13.9-0.5-27.8-1-41.7-1.6
			c-4.2-0.2-8.3-0.5-12.5-0.8c-9.7-0.6-19.4-1.2-29.2-1.9c-7.1-0.5-14.3-0.6-21.4-1.7c-15.4-2.3-26.3-11.6-34.6-24.3
			C8,256.1,7,243.9,5.4,231.9c-0.8-5.8-1.2-11.6-1.8-17.4c-0.7-7.5-1.5-14.9-2-22.4c-0.4-6.2-0.4-12.4-0.6-18.7
			c0-0.9-0.3-1.7-0.5-2.6c0-15.1,0-30.3,0-45.4c0.2-0.6,0.5-1.2,0.5-1.8c0.4-8.4,0.7-16.8,1.2-25.3c0.3-5.6,0.9-11.1,1.5-16.6
			c0.5-5.2,1.1-10.3,1.7-15.5C6.1,60.2,6.5,54,7.7,48c2.1-10.5,7-19.6,14.8-27.1c8.8-8.5,19.2-13.2,31.2-14.4
			c8.6-0.8,17.3-1.2,26-1.6c13.6-0.8,27.3-1.5,40.9-2.1c10.6-0.5,21.1-0.8,31.7-1.1c9.9-0.3,19.9-0.4,29.8-0.6
			c4.4-0.1,8.9-0.3,13.3-0.5c8.2,0,16.4,0,24.6,0c0.5,0.1,1,0.3,1.5,0.3c16.2,0.4,32.5,0.8,48.7,1.3c11.6,0.3,23.2,0.7,34.9,1.1
			c3.3,0.1,6.5,0.4,9.8,0.6c10.9,0.7,21.7,1.4,32.6,2.1c6.3,0.4,12.6,0.4,18.8,1.1c14.7,1.6,26.3,8.8,35.4,20.5
			c8.6,11.2,9.8,24.6,11.5,37.8c0.7,5.6,1.2,11.2,1.8,16.8c0.7,7.5,1.5,14.9,1.9,22.4c0.4,6.1,0.4,12.3,0.6,18.4
			C417.7,123.8,418,124.6,418.2,125.5z M161.8,208.7C200,188.2,237.6,168,276,147.4c-38.4-20.6-76.1-40.9-114.2-61.3
			C161.8,127.2,161.8,167.6,161.8,208.7z"/>
	</g>
</g>
</svg>
